<?xml version="1.0" encoding="UTF-8"?>
<svg width="14px" height="8px" viewBox="0 0 14 8" version="1.1" xmlns="http://www.w3.org/2000/svg" xmlns:xlink="http://www.w3.org/1999/xlink">
    <title>Icon/Arrow</title>
    <g id="Comparison" stroke="none" stroke-width="1" fill="none" fill-rule="evenodd">
        <g id="XY_Fundamentals-GrowthScores" transform="translate(-1357.000000, -378.000000)" fill="#7F8899">
            <g id="Group-21" transform="translate(1364.000000, 382.000000) scale(1, -1) translate(-1364.000000, -382.000000) translate(1352.000000, 370.000000)">
                <g id="icons8-expand_arrow" transform="translate(5.000000, 8.000000)">
                    <path d="M12.895313,0.290625012 C12.735938,0.295312512 12.585938,0.360937514 12.4757819,0.475781419 L6.90000027,6.05156274 L1.32421895,0.475781419 C1.21054685,0.359765714 1.05585934,0.294140712 0.892968935,0.294140712 C0.649218926,0.294140712 0.430078217,0.442968918 0.338671813,0.669140727 C0.24609391,0.895312536 0.301171812,1.15429685 0.475781419,1.32421895 L6.47578166,7.32421919 C6.71015667,7.5585942 7.08984418,7.5585942 7.32421919,7.32421919 L13.3242194,1.32421895 C13.5023444,1.15312505 13.5585944,0.889453235 13.4625005,0.660937526 C13.3675787,0.432421817 13.1425787,0.285937511 12.895313,0.290625012 Z" id="Path"></path>
                </g>
            </g>
        </g>
    </g>
</svg>