<svg width="73" height="72" viewBox="0 0 73 72" xmlns="http://www.w3.org/2000/svg" xmlns:xlink="http://www.w3.org/1999/xlink">
    <defs>
        <path id="mku9zczega" d="M0 0h72v72H0z"/>
        <path id="fzoxo3j4sc" d="M0 0h35.913v71.827H0z"/>
        <path id="g182urq9de" d="M0 0h17.35v29.257H0z"/>
        <path id="gne4n2og5g" d="M0 0h17.58v29.257H0z"/>
        <path id="xwygy9ecfi" d="M0 0h13.648v10.3H0z"/>
        <path id="f30rsdqbwk" d="M0 0h17.35v29.257H0z"/>
        <path id="xzur13nb1m" d="M0 0h6.618v10.3H0z"/>
        <path id="w8yb7ibzio" d="M0 0h12.864v36.087H0z"/>
    </defs>
    <g fill="none" fill-rule="evenodd">
        <g transform="translate(.5)">
            <mask id="0a2qu8bavb" fill="#fff">
                <use xlink:href="#mku9zczega"/>
            </mask>
            <path d="M2.227 45.6c.913 3.107 2.306 6.055 4.036 8.77a40.549 40.549 0 0 0 4.876 6.176c.236.258.5.489.75.733.255.24.502.486.763.719l.79.688.395.344.41.326.82.654c.277.213.564.413.845.621.555.425 1.146.799 1.725 1.193l.262.176.294.177.658.393c.463.29 1.01.564 1.6.878.149.076.297.16.454.235a144.647 144.647 0 0 0 1.502.695c.72.281 1.47.62 2.288.881 3.23 1.17 7.26 1.895 11.305 1.911 4.045-.016 8.076-.74 11.305-1.91.818-.263 1.568-.6 2.287-.882.35-.162.691-.32 1.02-.47l.482-.225c.157-.075.306-.159.454-.235.59-.314 1.138-.588 1.6-.878l.658-.393L54.1 66l.263-.176a40.478 40.478 0 0 0 6.138-4.913c1.98-1.977 3.71-4.192 5.235-6.54 1.73-2.716 3.124-5.664 4.037-8.772.95-3.097 1.39-6.348 1.418-9.599-.029-3.251-.468-6.502-1.418-9.6-.913-3.107-2.307-6.055-4.037-8.77a40.493 40.493 0 0 0-4.876-6.176c-.236-.258-.499-.489-.749-.733-.255-.24-.502-.486-.763-.719l-.79-.688-.396-.345-.41-.325-.819-.654c-.277-.213-.564-.413-.845-.621-.555-.425-1.146-.799-1.725-1.193L54.101 6c-.095-.056-.192-.116-.294-.177l-.658-.393c-.463-.29-1.01-.564-1.6-.878-.149-.076-.298-.16-.455-.235l-.483-.225c-.328-.15-.668-.308-1.019-.47-.72-.281-1.47-.62-2.287-.881C44.075 1.57 40.045.846 36 .83c-4.045.016-8.076.74-11.305 1.91-.819.263-1.568.6-2.288.882-.35.162-.69.32-1.018.47l-.484.225c-.156.075-.305.159-.454.235-.59.314-1.137.588-1.6.878l-.658.393L17.9 6l-.263.176a40.486 40.486 0 0 0-6.139 4.913c-1.978 1.977-3.709 4.192-5.234 6.54-1.73 2.716-3.124 5.664-4.037 8.772C1.277 29.498.837 32.749.81 36c.029 3.251.468 6.502 1.418 9.6zM0 35.976v-.004c.03-3.32.476-6.64 1.444-9.808.93-3.176 2.355-6.192 4.13-8.961l.854-1.283.617-.863c.356-.528.901-1.18 1.422-1.849.561-.635 1.1-1.291 1.552-1.739l.733-.765s.074-.076.208-.204l.552-.533c.446-.455 1.093-1.002 1.728-1.563.326-.272.661-.53.971-.78l.448-.356.417-.3.86-.621s.073-.06.194-.14l.44-.293.64-.428.268-.181.3-.183.673-.403c.472-.298 1.032-.58 1.635-.901.152-.079.305-.165.466-.242l.493-.23 1.043-.483c.736-.289 1.504-.634 2.341-.903C27.734.76 31.861.016 36 0c4.139.016 8.265.76 11.57 1.96.838.27 1.606.615 2.342.904l1.043.484.493.23c.161.076.314.162.466.24.603.322 1.163.604 1.635.902l.672.403.3.183.269.18a6104231.203 6104231.203 0 0 0 1.079.724c.12.077.196.138.196.138l.86.62c.128.094.267.194.416.3l.448.358c.31.248.645.507.97.779.636.56 1.283 1.108 1.729 1.563l.552.533c.134.128.208.204.208.204l.733.765c.452.448.99 1.104 1.551 1.739.522.67 1.067 1.321 1.423 1.849l.617.863.854 1.283c1.775 2.77 3.2 5.785 4.13 8.961.967 3.168 1.413 6.489 1.443 9.809v.003L72 36v.027c-.03 3.32-.477 6.64-1.444 9.807-.93 3.177-2.355 6.193-4.13 8.962l-.854 1.283-.617.863c-.357.528-.901 1.18-1.423 1.848-.56.636-1.099 1.292-1.551 1.74l-.733.765s-.074.076-.208.204l-.552.533c-.446.455-1.093 1.002-1.729 1.563-.325.272-.66.53-.97.78l-.448.356-.417.3-.86.621s-.074.06-.195.138l-.44.295-.64.428c-.085.058-.174.119-.268.181l-.3.183-.673.403c-.472.298-1.03.58-1.635.901-.152.079-.305.165-.465.242l-.493.23-1.044.483c-.735.289-1.503.634-2.34.903C44.265 71.24 40.139 71.984 36 72c-4.139-.016-8.266-.76-11.572-1.96-.836-.27-1.605-.615-2.34-.904l-1.043-.484-.494-.23c-.16-.076-.313-.162-.465-.24-.603-.322-1.163-.604-1.635-.902l-.672-.403-.301-.183-.269-.18-.639-.43-.44-.294c-.12-.077-.195-.138-.195-.138l-.86-.62c-.128-.094-.268-.194-.416-.3l-.448-.358c-.31-.248-.645-.507-.971-.779-.635-.56-1.282-1.108-1.728-1.563l-.552-.533c-.134-.128-.208-.204-.208-.204l-.733-.765c-.452-.448-.991-1.104-1.552-1.74-.52-.669-1.066-1.32-1.422-1.848l-.617-.863-.854-1.283c-1.775-2.77-3.2-5.785-4.13-8.962C.476 42.667.031 39.346.001 36.026L0 36.023v-.046" fill="#006AFF" fill-rule="nonzero" mask="url(#0a2qu8bavb)"/>
        </g>
        <g transform="translate(36.577)">
            <mask id="k7j290pk5d" fill="#fff">
                <use xlink:href="#fzoxo3j4sc"/>
            </mask>
            <path d="M-33.852 45.6c.913 3.107 2.307 6.055 4.036 8.77a40.549 40.549 0 0 0 4.876 6.176c.236.258.499.489.75.733.255.24.503.486.762.719l.792.688.394.344.41.326.82.654c.278.213.563.413.844.621.556.425 1.147.799 1.726 1.193l.262.176.295.177.658.393c.461.29 1.009.564 1.599.878.148.076.297.16.455.235a144.638 144.638 0 0 0 1.501.695c.72.281 1.47.62 2.287.881 3.23 1.17 7.26 1.895 11.306 1.911 4.045-.016 8.075-.74 11.305-1.91.818-.263 1.568-.6 2.288-.882.35-.162.69-.32 1.019-.47l.482-.225c.158-.075.307-.159.455-.235.59-.314 1.138-.588 1.6-.878l.657-.393.295-.177.262-.176a40.441 40.441 0 0 0 6.138-4.913c1.98-1.977 3.71-4.192 5.236-6.54 1.729-2.716 3.123-5.664 4.036-8.772.95-3.097 1.39-6.348 1.418-9.599-.028-3.251-.467-6.502-1.418-9.6-.913-3.107-2.307-6.055-4.036-8.77a40.549 40.549 0 0 0-4.876-6.176c-.236-.258-.5-.489-.75-.733-.254-.24-.502-.486-.762-.719l-.79-.688-.397-.345-.41-.325-.818-.654c-.278-.213-.564-.413-.845-.621-.556-.425-1.147-.799-1.725-1.193A69.587 69.587 0 0 1 18.022 6l-.295-.177-.658-.393c-.461-.29-1.008-.564-1.6-.878-.147-.076-.296-.16-.454-.235l-.482-.225c-.328-.15-.669-.308-1.02-.47-.719-.281-1.469-.62-2.286-.881C7.997 1.57 3.966.846-.08.83c-4.045.016-8.075.74-11.305 1.91-.818.263-1.568.6-2.288.882-.35.162-.69.32-1.018.47l-.483.225c-.158.075-.306.159-.455.235-.59.314-1.138.588-1.6.878l-.657.393-.295.177-.262.176a40.486 40.486 0 0 0-6.138 4.913c-1.98 1.977-3.71 4.192-5.236 6.54-1.73 2.716-3.123 5.664-4.036 8.772-.95 3.097-1.39 6.348-1.418 9.599.028 3.251.468 6.502 1.418 9.6zm-2.227-9.623.001-.004c.03-3.32.476-6.64 1.443-9.808.93-3.176 2.354-6.192 4.13-8.961l.854-1.283.617-.863c.356-.528.902-1.18 1.422-1.849.561-.635 1.099-1.291 1.552-1.739l.733-.765s.075-.076.207-.204l.553-.533c.446-.455 1.093-1.002 1.728-1.563.326-.272.662-.53.97-.78l.45-.356.415-.3.86-.621s.075-.06.196-.14l.439-.293.64-.428.268-.181.301-.183.672-.403c.473-.298 1.032-.58 1.636-.901.152-.079.304-.165.465-.242l.494-.23 1.042-.483c.736-.289 1.504-.634 2.34-.903C-8.344.76-4.217.016-.078 0 4.06.016 8.187.76 11.492 1.96c.837.27 1.605.615 2.34.904l1.043.484.495.23c.16.076.312.162.464.24.605.322 1.164.604 1.636.902l.673.403.3.183.268.18a2034741.942 2034741.942 0 0 0 1.08.724c.12.077.195.138.195.138a834.053 834.053 0 0 0 1.275.92l.45.358c.308.248.644.507.97.779.635.56 1.282 1.108 1.728 1.563l.552.533a9.9 9.9 0 0 1 .208.204l.733.765c.453.448.99 1.104 1.552 1.739.52.67 1.066 1.321 1.422 1.849l.617.863.854 1.283c1.776 2.77 3.2 5.785 4.13 8.961.967 3.168 1.414 6.489 1.443 9.809v.003l.001.023v.023l-.001.004c-.03 3.32-.476 6.64-1.443 9.807-.93 3.177-2.354 6.193-4.13 8.962l-.854 1.283-.617.863c-.356.528-.902 1.18-1.422 1.848-.562.636-1.1 1.292-1.552 1.74l-.733.765s-.074.076-.208.204l-.552.533c-.446.455-1.093 1.002-1.728 1.563-.326.272-.662.53-.97.78a177.5 177.5 0 0 1-.45.356l-.416.3-.859.621s-.075.06-.196.138l-.44.295-.639.428-.268.181-.301.183-.672.403c-.473.298-1.032.58-1.636.901-.152.079-.304.165-.464.242l-.495.23-1.042.483c-.736.289-1.504.634-2.34.903C8.186 71.24 4.06 71.984-.08 72c-4.14-.016-8.266-.76-11.571-1.96-.837-.27-1.605-.615-2.34-.904l-1.043-.484-.495-.23c-.16-.076-.312-.162-.464-.24-.605-.322-1.163-.604-1.636-.902l-.672-.403-.3-.183-.27-.18-.639-.43-.44-.294c-.12-.077-.195-.138-.195-.138l-.86-.62c-.128-.094-.268-.194-.415-.3l-.45-.358c-.308-.248-.644-.507-.97-.779-.635-.56-1.282-1.108-1.728-1.563l-.553-.533c-.132-.128-.207-.204-.207-.204l-.733-.765c-.453-.448-.99-1.104-1.552-1.74-.52-.669-1.066-1.32-1.422-1.848l-.617-.863-.853-1.283c-1.777-2.77-3.2-5.785-4.13-8.962-.968-3.167-1.415-6.488-1.444-9.808v-.049" fill="#00D684" fill-rule="nonzero" mask="url(#k7j290pk5d)"/>
        </g>
        <g transform="translate(10.245 8.564)">
            <mask id="g0a8a3oexf" fill="#fff">
                <use xlink:href="#g182urq9de"/>
            </mask>
            <path d="M11.326 3.453c-.888.892-2.356 1.885-4.768 2.837C3.044 7.676.79 11.594 1.075 15.818c.386 5.702 5.179 10.263 12.848 12.255.703-1.47 3.257-7.237 1.895-10.676-.733.086-2.416.22-4.195-.078-3.195-.539-5.122-2.22-5.575-4.86-.541-3.163 1.359-4.91 3.034-6.452.912-.838 1.755-1.615 2.244-2.554zm2.863 25.69a.529.529 0 0 1-.117-.015c-4.486-1.101-8-2.956-10.446-5.511C1.506 21.4.284 18.727.091 15.884c-.314-4.647 2.196-8.97 6.105-10.512 5.589-2.206 5.501-4.39 5.468-4.654l-.012-.056a.493.493 0 0 1 .958-.235l.013.06c.63 3.024-1.15 4.662-2.872 6.246-1.637 1.505-3.18 2.926-2.73 5.559.917 5.361 8.935 4.093 9.016 4.08a.493.493 0 0 1 .524.268c2.126 4.32-1.767 11.915-1.933 12.236a.494.494 0 0 1-.439.266" fill="#006AFF" fill-rule="nonzero" mask="url(#g0a8a3oexf)"/>
        </g>
        <path d="M32.75 56.736c.079.37.227.71.484.826.224.1.632.232.865-.005.157-.16.187-.427.118-.575-.028-.059-.068-.113-.22-.101a2.877 2.877 0 0 1-1.246-.145zm.993 1.942a2.22 2.22 0 0 1-.912-.216c-1.267-.567-1.147-2.533-1.13-2.755a.492.492 0 0 1 .912-.221c.022.034.356.492 1.302.412.532-.046.977.203 1.194.664.253.538.125 1.247-.305 1.686-.155.156-.503.43-1.06.43M20.586 36.513c-2.118 1.71-3.616 3.628-4.47 5.718.721-.298 1.611-.475 2.574-.667 1.807-.36 3.845-.765 5.196-2.102a49.805 49.805 0 0 1-.5-2.014 28.107 28.107 0 0 1-2.8-.935zm-5.421 7.505a.493.493 0 0 1-.477-.618c.768-2.933 2.622-5.571 5.51-7.84a.497.497 0 0 1 .493-.069c1.006.413 2.096.777 3.24 1.084.179.048.316.19.355.371.177.812.387 1.662.624 2.524a.493.493 0 0 1-.11.46c-1.563 1.736-3.877 2.196-5.918 2.602-1.52.302-2.832.564-3.308 1.269a.494.494 0 0 1-.41.217" fill="#006AFF" fill-rule="nonzero"/>
        <g transform="translate(44.943 8.564)">
            <mask id="ovbugyough" fill="#fff">
                <use xlink:href="#gne4n2og5g"/>
            </mask>
            <path d="M1.605 17.397C.24 20.84 2.797 26.603 3.499 28.073c7.67-1.992 12.462-6.553 12.848-12.255.286-4.224-1.969-8.14-5.483-9.528-2.41-.951-3.88-1.945-4.767-2.837.489.94 1.332 1.716 2.242 2.554 1.677 1.542 3.576 3.29 3.036 6.451-.453 2.641-2.38 4.322-5.577 4.86-1.778.3-3.46.166-4.193.08zm1.628 11.745a.493.493 0 0 1-.438-.266c-.166-.32-4.06-7.916-1.934-12.236a.497.497 0 0 1 .524-.268c.08.013 8.101 1.272 9.017-4.08.45-2.632-1.095-4.054-2.73-5.56C5.95 5.15 4.17 3.513 4.8.488c.006-.032.012-.051.014-.06a.494.494 0 0 1 .957.235l-.006.031c-.027.186-.23 2.433 5.463 4.679 3.909 1.543 6.419 5.865 6.104 10.512-.192 2.843-1.415 5.517-3.535 7.733-2.445 2.555-5.96 4.41-10.445 5.511a.529.529 0 0 1-.118.014" fill="#006AFF" fill-rule="nonzero" mask="url(#ovbugyough)"/>
        </g>
        <path d="M38.571 56.879c-.118 0-.153.05-.177.103-.07.148-.04.415.117.575.234.237.642.104.865.005.26-.117.409-.457.485-.827-.321.119-.732.19-1.248.146l-.042-.002zm.296 1.799c-.557 0-.906-.274-1.06-.43-.43-.438-.559-1.148-.306-1.686.217-.461.663-.71 1.195-.664.964.083 1.294-.399 1.296-.403a.493.493 0 0 1 .917.212c.018.222.137 2.188-1.13 2.755a2.22 2.22 0 0 1-.912.216" fill="#006AFF" fill-rule="nonzero"/>
        <g transform="translate(29.445 53.09)">
            <mask id="o2fnoc3ipj" fill="#fff">
                <use xlink:href="#xwygy9ecfi"/>
            </mask>
            <path d="M1.308 3.87c-.268 1.334-.031 2.479.705 3.403.973 1.223 2.784 1.978 4.846 2.022h.003c2.062-.044 3.874-.8 4.846-2.022.737-.924.973-2.07.706-3.403-.991-2.346-2.322-2.771-5.545-2.79h-.015c-3.224.019-4.555.444-5.546 2.79zm5.564 6.411h-.024l.009-.323-.008-.17-.01.492c-2.352-.048-4.444-.943-5.598-2.392C.319 6.729.01 5.254.35 3.623a.48.48 0 0 1 .028-.088C1.587.633 3.427.113 6.847.095h.028c3.419.018 5.26.538 6.468 3.44a.48.48 0 0 1 .027.088c.34 1.63.032 3.106-.89 4.265-1.149 1.444-3.23 2.337-5.573 2.392l-.035.001" fill="#006AFF" fill-rule="nonzero" mask="url(#o2fnoc3ipj)"/>
        </g>
        <path d="M24.458 37.706c.839 3.552 2.248 7.607 4.192 12.065 1.055 2.418 1.594 4.337 1.864 5.548 1.205-1.764 2.956-2.121 5.789-2.135 2.836.014 4.589.371 5.793 2.135.27-1.211.81-3.13 1.864-5.548 1.945-4.458 3.354-8.513 4.192-12.065a.493.493 0 0 1-.414-.266c-.166-.32-4.059-7.915-1.933-12.235a.494.494 0 0 1 .524-.269l.094.015c-1.832-1.015-5.193-2.363-10.117-2.363-4.926 0-8.286 1.348-10.118 2.362l.094-.014a.493.493 0 0 1 .523.27c2.126 4.319-1.766 11.914-1.933 12.234a.493.493 0 0 1-.414.266zm5.822 19.6a.492.492 0 0 1-.492-.445c-.003-.025-.282-2.66-2.042-6.696-2.111-4.839-3.6-9.216-4.424-13.01a.494.494 0 0 1 .61-.58l.236.062c.702-1.471 3.256-7.237 1.894-10.676-.367.043-.976.098-1.717.105h-.005a.494.494 0 0 1-.309-.878c.745-.599 4.836-3.587 12.275-3.587 7.437 0 11.529 2.988 12.274 3.587a.494.494 0 0 1-.31.878h-.004a16.078 16.078 0 0 1-1.717-.105c-1.364 3.443 1.19 9.206 1.893 10.676l.238-.062a.493.493 0 0 1 .609.58c-.825 3.794-2.313 8.171-4.424 13.01-1.76 4.037-2.04 6.67-2.042 6.697a.494.494 0 0 1-.946.14c-.994-2.385-2.325-2.815-5.574-2.832-3.245.017-4.575.447-5.569 2.833a.492.492 0 0 1-.454.303" fill="#006AFF" fill-rule="nonzero"/>
        <path d="M48.725 39.462c1.35 1.337 3.389 1.743 5.196 2.102.963.192 1.852.37 2.573.667-.853-2.09-2.352-4.007-4.469-5.718-.883.349-1.823.664-2.801.935-.147.655-.315 1.33-.499 2.014zm8.72 4.556a.495.495 0 0 1-.409-.217c-.475-.705-1.788-.967-3.308-1.269-2.041-.406-4.354-.866-5.918-2.601a.492.492 0 0 1-.109-.461c.237-.862.447-1.71.624-2.524a.494.494 0 0 1 .354-.371 26.926 26.926 0 0 0 3.241-1.084.495.495 0 0 1 .492.069c2.889 2.269 4.743 4.907 5.51 7.84a.493.493 0 0 1-.476.618M32.97 54.55h-.003a.494.494 0 0 1-.49-.497c.082-19.558-6.439-28.243-6.505-28.329a.494.494 0 0 1 .782-.603c.07.092 1.74 2.286 3.408 6.97 1.53 4.292 3.344 11.588 3.301 21.967a.494.494 0 0 1-.493.491M39.315 54.453a.493.493 0 0 1-.493-.492c-.044-10.383 1.868-17.655 3.48-21.927 1.758-4.663 3.516-6.834 3.59-6.924a.493.493 0 0 1 .764.625c-.017.022-1.751 2.173-3.454 6.706-1.571 4.186-3.436 11.318-3.394 21.516a.493.493 0 0 1-.49.496h-.003" fill="#006AFF" fill-rule="nonzero"/>
        <g transform="translate(44.943 8.564)">
            <mask id="wxegkgii1l" fill="#fff">
                <use xlink:href="#f30rsdqbwk"/>
            </mask>
            <path d="M1.523 17.397c-1.365 3.443 1.19 9.206 1.894 10.676 7.67-1.992 12.462-6.553 12.847-12.255.287-4.224-1.968-8.14-5.482-9.528-2.41-.951-3.88-1.945-4.768-2.837.49.94 1.332 1.716 2.243 2.554 1.676 1.542 3.576 3.29 3.035 6.451-.452 2.641-2.38 4.322-5.576 4.86-1.778.3-3.46.166-4.193.08zM3.15 29.142c-.18 0-.352-.1-.437-.266-.168-.32-4.06-7.916-1.934-12.236a.497.497 0 0 1 .524-.268c.08.013 8.1 1.272 9.016-4.08.451-2.632-1.094-4.054-2.73-5.56C5.87 5.15 4.088 3.513 4.717.488l.013-.06a.493.493 0 0 1 .958.235l-.006.031c-.028.186-.23 2.433 5.462 4.679 3.91 1.543 6.42 5.865 6.105 10.512-.192 2.843-1.415 5.517-3.535 7.733-2.446 2.555-5.96 4.41-10.446 5.511a.537.537 0 0 1-.118.014" fill="#00D684" fill-rule="nonzero" mask="url(#wxegkgii1l)"/>
        </g>
        <path d="M38.488 56.879c-.118 0-.152.05-.176.103-.07.148-.04.415.116.575.233.237.643.104.866.005.26-.117.408-.457.485-.827-.322.119-.734.19-1.249.146l-.042-.002zm.296 1.799c-.557 0-.906-.274-1.06-.43-.43-.438-.558-1.148-.305-1.686.217-.461.663-.71 1.195-.664.964.083 1.294-.399 1.296-.403a.492.492 0 0 1 .917.212c.017.222.136 2.188-1.13 2.755-.35.157-.653.216-.913.216" fill="#00D684" fill-rule="nonzero"/>
        <g transform="translate(36.475 53.09)">
            <mask id="3l4myaypwn" fill="#fff">
                <use xlink:href="#xzur13nb1m"/>
            </mask>
            <path d="M-5.805 3.87c-.267 1.334-.03 2.479.705 3.403.973 1.223 2.785 1.978 4.847 2.022h.003c2.062-.044 3.873-.8 4.846-2.022.735-.924.973-2.07.705-3.403C4.31 1.524 2.979 1.1-.243 1.08h-.015c-3.225.019-4.556.444-5.547 2.79zm5.565 6.411h-.025l.01-.323-.008-.17-.01.492c-2.353-.048-4.446-.943-5.599-2.392-.922-1.159-1.23-2.634-.889-4.265a.48.48 0 0 1 .027-.088C-5.526.633-3.684.113-.266.095h.028c3.42.018 5.26.538 6.468 3.44a.421.421 0 0 1 .028.088c.34 1.63.032 3.106-.89 4.265C4.22 9.332 2.137 10.225-.205 10.28l-.035.001" fill="#00D684" fill-rule="nonzero" mask="url(#3l4myaypwn)"/>
        </g>
        <g transform="translate(36.475 21.398)">
            <mask id="o16zcga4dp" fill="#fff">
                <use xlink:href="#w8yb7ibzio"/>
            </mask>
            <path d="M-12.098 16.308c.838 3.553 2.246 7.607 4.191 12.065 1.055 2.419 1.594 4.337 1.865 5.549 1.204-1.764 2.954-2.122 5.787-2.136 2.838.014 4.59.372 5.794 2.136.27-1.212.81-3.13 1.864-5.549 1.945-4.458 3.354-8.512 4.192-12.065a.493.493 0 0 1-.414-.265c-.166-.321-4.059-7.916-1.933-12.235a.496.496 0 0 1 .524-.27l.094.015C8.033 2.538 4.673 1.19-.252 1.19c-4.925 0-8.285 1.348-10.117 2.362l.094-.013a.494.494 0 0 1 .523.269c2.125 4.32-1.766 11.914-1.933 12.235a.494.494 0 0 1-.413.265zm5.82 19.6c-.024 0-.048 0-.074-.005a.492.492 0 0 1-.417-.439c-.003-.026-.282-2.66-2.042-6.697-2.111-4.838-3.6-9.215-4.424-13.009a.492.492 0 0 1 .609-.58l.237.061c.703-1.47 3.256-7.237 1.894-10.676-.368.044-.976.099-1.717.105h-.005a.493.493 0 0 1-.309-.877C-11.78 3.19-7.69.203-.252.203c7.438 0 11.53 2.989 12.275 3.588a.494.494 0 0 1-.31.877h-.004a16.098 16.098 0 0 1-1.718-.105c-1.363 3.443 1.191 9.206 1.894 10.676l.237-.062a.495.495 0 0 1 .61.581c-.825 3.794-2.314 8.17-4.424 13.01-1.76 4.036-2.04 6.67-2.042 6.696a.494.494 0 0 1-.947.141c-.993-2.385-2.324-2.816-5.574-2.833-3.244.017-4.575.448-5.568 2.833a.493.493 0 0 1-.455.304" fill="#00D684" fill-rule="nonzero" mask="url(#o16zcga4dp)"/>
        </g>
        <path d="M48.643 39.462c1.35 1.337 3.388 1.743 5.196 2.102.962.192 1.852.37 2.573.667-.854-2.09-2.352-4.007-4.47-5.718-.882.349-1.822.664-2.8.935-.148.655-.315 1.33-.5 2.014zm8.72 4.556a.493.493 0 0 1-.409-.217c-.476-.705-1.788-.967-3.308-1.269-2.041-.406-4.354-.866-5.919-2.601a.493.493 0 0 1-.109-.461c.238-.862.447-1.71.624-2.524a.494.494 0 0 1 .355-.371 26.858 26.858 0 0 0 3.24-1.084.497.497 0 0 1 .493.069c2.888 2.269 4.743 4.907 5.51 7.84a.492.492 0 0 1-.477.618M39.233 54.453a.494.494 0 0 1-.494-.492c-.043-10.383 1.868-17.655 3.48-21.927 1.758-4.663 3.517-6.834 3.59-6.924a.492.492 0 1 1 .764.625c-.018.022-1.752 2.173-3.453 6.706-1.572 4.186-3.437 11.318-3.394 21.516a.494.494 0 0 1-.49.496h-.003" fill="#00D684" fill-rule="nonzero"/>
    </g>
</svg>
